<svg width="100" height="100" viewBox="0 0 100 100" fill="none" xmlns="http://www.w3.org/2000/svg">
  <circle cx="50" cy="50" r="45" stroke="#10b981" strokeWidth="6" strokeDasharray="3 3" opacity="0.4" />
  <path d="M50 15C30.67 15 15 30.67 15 50C15 63.8 22.99 75.76 34.6 81.56C34.85 81.68 35.15 81.65 35.37 81.48C35.59 81.3 35.7 81.02 35.68 80.74C35.1 73.18 39.2 65.85 45.9 62.43C48.47 61.12 51.53 61.12 54.1 62.43C60.8 65.85 64.9 73.18 64.32 80.74C64.3 81.02 64.41 81.3 64.63 81.48C64.85 81.65 65.15 81.68 65.4 81.56C77.01 75.76 85 63.8 85 50C85 30.67 69.33 15 50 15Z" fill="#10b981" />
  <path d="M50 32C45.58 32 42 35.58 42 40C42 44.42 45.58 48 50 48C54.42 48 58 44.42 58 40C58 35.58 54.42 32 50 32Z" fill="#ffffff" />
</svg>
